<svg width="64" height="64" viewBox="0 0 64 64" fill="none" xmlns="http://www.w3.org/2000/svg">
  <rect width="64" height="64" rx="16" fill="#041E23"/>
  
  <g transform="translate(32 32) rotate(-12) translate(-13 -13)">
    <path 
      d="M17.8 22.2L14.4 25.6C14.2 25.8 13.9 25.8 13.7 25.6L12.4 24.3C12.2 24.1 12.2 23.8 12.4 23.6L15.8 20.2M2.5 13H5C5.6 13 6 12.6 6 12V9C6 8.4 5.6 8 5 8H2.5C1.7 8 1 8.7 1 9.5V11.5C1 12.3 1.7 13 2.5 13ZM22.2 17.8L25.6 14.4C25.8 14.2 25.8 13.9 25.6 13.7L24.3 12.4C24.1 12.2 23.8 12.2 23.6 12.4L20.2 15.8M18 2L14.5 5.5C14.3 5.7 14.3 6 14.5 6.2L15.8 7.5C16 7.7 16.3 7.7 16.5 7.5L20 4M6 4L9.5 7.5C9.7 7.7 10 7.7 10.2 7.5L11.5 6.2C11.7 6 11.7 5.7 11.5 5.5L8 2M22 6L18.5 9.5C18.3 9.7 18.3 10 18.5 10.2L19.8 11.5C20 11.7 20.3 11.7 20.5 11.5L24 8" 
      stroke="#fbbf24" 
      stroke-width="2.5" 
      stroke-linecap="round" 
      stroke-linejoin="round"
    />
    <path 
      d="M13 25L25 13L21 9L7 9L13 25Z" 
      fill="#fbbf24"
    />
  </g>
</svg>